<?xml version="1.0" encoding="UTF-8"?>
<svg id="Layer_2" data-name="Layer 2" xmlns="http://www.w3.org/2000/svg" xmlns:xlink="http://www.w3.org/1999/xlink" viewBox="0 0 509.93 120.42">
  <defs>
    <style>
      .cls-1 {
        fill: #8f4899;
      }

      .cls-2 {
        fill: #533278;
      }

      .cls-3 {
        clip-path: url(#clippath);
      }

      .cls-4 {
        fill: none;
      }

      .cls-5 {
        fill: #ffb71b;
      }

      .cls-6 {
        fill: #f32735;
      }
    </style>
    <clipPath id="clippath">
      <path class="cls-4" d="M274.95,103.49h232.83c.64,0,1.17,.52,1.17,1.17v14.6c0,.64-.52,1.17-1.17,1.17h-232.83c-.64,0-1.16-.52-1.16-1.16v-14.6c0-.64,.52-1.17,1.17-1.17Z"/>
    </clipPath>
  </defs>
  <g id="Capa_1" data-name="Capa 1">
    <g>
      <g>
        <path class="cls-2" d="M11.66,20.34c.9-.26,1.82-.51,2.79-.77,.83-.19,1.75-.35,2.73-.48,.99-.12,2-.19,3.01-.19,3.94,0,7.54,.67,10.77,2.01,3.23,1.34,6.01,3.17,8.34,5.5,2.33,2.33,4.14,5.07,5.42,8.23,1.29,3.16,1.94,6.53,1.94,10.1s-.65,6.94-1.94,10.1c-1.29,3.15-3.1,5.9-5.42,8.23-2.33,2.33-5.11,4.16-8.34,5.5-3.23,1.34-6.82,2.01-10.77,2.01-2.57,0-5.07-.23-7.49-.67-2.42-.45-4.59-.96-6.5-1.53-2.16-.57-4.22-1.27-6.19-2.1V2.09c0-.23,.17-.42,.39-.42H11.26c.21,0,.39,.19,.39,.42V20.34Zm8.52,39.72c2.16,0,4.11-.36,5.88-1.1,1.76-.74,3.27-1.78,4.53-3.11,1.26-1.34,2.22-2.95,2.91-4.84,.69-1.88,1.03-3.97,1.03-6.27s-.34-4.39-1.03-6.28c-.69-1.88-1.66-3.49-2.91-4.83-1.26-1.34-2.77-2.38-4.53-3.11-1.77-.73-3.72-1.1-5.88-1.1-1.02,0-2.04,.08-3.05,.24-1.02,.16-1.92,.3-2.69,.43-.96,.26-1.88,.51-2.79,.76v27.76c.9,.26,1.82,.48,2.79,.67,.83,.26,1.75,.44,2.73,.57,.99,.13,2,.19,3.01,.19"/>
        <path class="cls-2" d="M195.96,64.78c.09,.19,.05,.42-.1,.54-1.25,.99-2.66,1.88-4.21,2.65-1.56,.77-3.32,1.44-5.29,2.01-1.98,.58-4.25,.86-6.82,.86-3.95,0-7.53-.67-10.77-2.01-3.22-1.34-6.01-3.17-8.34-5.5-2.33-2.33-4.14-5.07-5.42-8.23-1.29-3.17-1.93-6.53-1.93-10.1s.64-6.94,1.93-10.1c1.29-3.16,3.1-5.9,5.42-8.24,2.34-2.32,5.12-4.16,8.34-5.5,3.23-1.34,6.82-2.01,10.77-2.01,2.45,0,4.66,.27,6.64,.82,1.97,.54,3.68,1.13,5.11,1.77,1.5,.77,2.86,1.59,4.1,2.47,.17,.13,.22,.37,.13,.56l-4.11,7.88c-.11,.22-.37,.28-.55,.15-.81-.54-1.67-1.03-2.61-1.48-1.02-.45-2.17-.83-3.46-1.15-1.28-.32-2.73-.48-4.34-.48-2.16,0-4.16,.41-6.01,1.25-1.86,.83-3.48,1.95-4.85,3.34-1.38,1.41-2.45,3.03-3.23,4.89-.78,1.85-1.17,3.79-1.17,5.84s.39,3.99,1.17,5.84c.77,1.85,1.85,3.48,3.23,4.88,1.37,1.41,2.99,2.52,4.85,3.35,1.85,.83,3.85,1.24,6.01,1.24,1.72,0,3.28-.19,4.66-.58,1.38-.38,2.54-.82,3.5-1.34,.99-.5,1.88-1.05,2.69-1.64,.19-.15,.46-.08,.57,.14l4.11,7.88Z"/>
        <path class="cls-2" d="M196.55,45c0-3.57,.64-6.93,1.92-10.1,1.29-3.16,3.06-5.9,5.3-8.24,2.24-2.33,4.89-4.16,7.94-5.5,3.05-1.34,6.37-2.01,9.96-2.01s6.92,.67,10,2.01c3.08,1.34,5.75,3.17,7.99,5.5,2.24,2.33,3.99,5.07,5.25,8.24,1.26,3.16,1.88,6.53,1.88,10.1s-.62,6.94-1.88,10.1c-1.26,3.15-3.01,5.9-5.25,8.23-2.24,2.33-4.9,4.16-7.99,5.5-3.08,1.34-6.42,2.01-10,2.01s-6.91-.67-9.96-2.01c-3.05-1.34-5.69-3.17-7.94-5.5-2.24-2.33-4.01-5.08-5.3-8.23-1.29-3.16-1.92-6.53-1.92-10.1m38.13,0c0-2.3-.35-4.38-1.04-6.27-.68-1.88-1.62-3.49-2.78-4.83-1.16-1.34-2.54-2.37-4.13-3.1-1.58-.74-3.28-1.1-5.07-1.1s-3.49,.37-5.07,1.1c-1.59,.73-2.96,1.76-4.12,3.1-1.17,1.34-2.1,2.95-2.78,4.83-.69,1.89-1.03,3.97-1.03,6.27s.34,4.39,1.03,6.27c.68,1.89,1.61,3.5,2.78,4.84,1.17,1.34,2.54,2.37,4.12,3.1,1.58,.73,3.28,1.1,5.07,1.1s3.48-.37,5.07-1.1c1.59-.73,2.96-1.76,4.13-3.1,1.16-1.34,2.1-2.96,2.78-4.84,.69-1.88,1.04-3.97,1.04-6.27"/>
        <path class="cls-2" d="M294.19,29.67c-1.02,0-2,.11-2.92,.34-.93,.23-1.72,.43-2.38,.61-.83,.35-1.61,.72-2.33,1.08v36.8c0,.23-.18,.42-.39,.42h-10.87c-.22,0-.4-.19-.4-.42V23.45c1.68-.83,3.5-1.56,5.48-2.2,1.8-.58,3.76-1.07,5.91-1.49,2.16-.41,4.49-.62,7-.62,2.21,0,4.23,.19,6.05,.57,1.82,.38,3.42,.83,4.8,1.34,1.49,.53,2.85,1.12,4.08,1.75,.18,.09,.27,.31,.2,.51l-2.88,9.28c-.08,.26-.36,.37-.58,.23-.8-.52-1.67-.99-2.63-1.44-1.08-.46-2.29-.86-3.63-1.21-1.34-.34-2.85-.52-4.53-.52"/>
        <path class="cls-2" d="M312.96,7.18c0-1.91,.68-3.59,2.06-5.03,1.37-1.44,3.08-2.15,5.12-2.15s3.74,.71,5.11,2.15c1.38,1.44,2.07,3.12,2.07,5.03s-.69,3.59-2.07,5.02c-1.37,1.44-3.08,2.15-5.11,2.15s-3.74-.72-5.12-2.15c-1.38-1.44-2.06-3.11-2.06-5.02m1.74,13.88h10.87c.22,0,.39,.19,.39,.42v47.02c0,.23-.17,.42-.39,.42h-10.69c-.32,0-.57-.27-.57-.61V21.48c0-.23,.17-.42,.39-.42"/>
        <path class="cls-2" d="M347.32,86.86h-10.87c-.22,0-.4-.19-.4-.42V23.5c0-.18,.1-.33,.25-.4,1.9-.79,3.88-1.49,5.94-2.09,2.03-.58,4.23-1.07,6.6-1.49,2.36-.42,4.83-.62,7.4-.62,3.95,0,7.53,.67,10.76,2.01,3.23,1.34,6.01,3.17,8.35,5.5,2.33,2.33,4.13,5.08,5.42,8.23,1.29,3.16,1.93,6.53,1.93,10.1s-.64,6.94-1.93,10.1c-1.29,3.17-3.1,5.9-5.42,8.23-2.34,2.33-5.12,4.17-8.35,5.5-3.23,1.34-6.82,2.01-10.76,2.01-1.02,0-2.04-.08-3.06-.25-1.01-.16-1.91-.3-2.69-.43-.95-.26-1.88-.51-2.78-.76v17.28c0,.23-.18,.42-.4,.42m8.92-57.43c-1.02,0-2.04,.08-3.06,.24-1.01,.16-1.91,.3-2.69,.44-.95,.25-1.88,.51-2.78,.76v27.76c.89,.26,1.82,.47,2.78,.67,.83,.26,1.75,.45,2.74,.57,.99,.14,1.99,.2,3.01,.2,2.15,0,4.1-.37,5.87-1.1,1.76-.73,3.27-1.77,4.53-3.11,1.26-1.34,2.22-2.95,2.91-4.84,.69-1.88,1.03-3.97,1.03-6.26s-.35-4.39-1.03-6.27c-.69-1.88-1.65-3.5-2.91-4.84-1.26-1.34-2.77-2.37-4.53-3.11-1.77-.74-3.73-1.1-5.87-1.1"/>
        <path class="cls-2" d="M391.55,68.92c-.22,0-.39-.19-.39-.42V11.97l-.03-9.62c0-.24,.18-.43,.4-.43h10.9c.22,0,.39,.19,.39,.43V68.5c0,.23-.17,.42-.39,.42"/>
        <path class="cls-2" d="M451.82,50.49h-29.1c.96,2.62,2.54,4.87,4.76,6.75,2.22,1.88,5.44,2.83,9.69,2.83,1.8,0,3.41-.19,4.85-.58,1.44-.38,2.66-.83,3.68-1.34,1.04-.5,1.97-1.05,2.78-1.64,.2-.14,.46-.08,.57,.14l4.1,7.88c.09,.19,.05,.42-.12,.55-1.3,1-2.76,1.88-4.38,2.65-1.56,.77-3.37,1.44-5.43,2.01-2.06,.57-4.38,.86-6.95,.86-3.94,0-7.52-.66-10.72-1.96-3.2-1.31-5.93-3.12-8.2-5.41-2.27-2.3-4.02-5.03-5.25-8.18-1.23-3.16-1.84-6.59-1.84-10.29s.58-7.33,1.75-10.48c1.17-3.16,2.81-5.89,4.94-8.19,2.12-2.3,4.63-4.07,7.54-5.32,2.9-1.24,6.08-1.86,9.55-1.86s6.65,.62,9.55,1.86c2.9,1.25,5.41,3.02,7.53,5.32,2.12,2.3,3.77,5.03,4.94,8.19,1.14,3.11,1.73,6.54,1.75,10.29,0,.12-.05,.23-.13,.32l-5.58,5.5c-.08,.07-.17,.11-.27,.11m-6.57-10.05c-.48-3.12-1.74-5.74-3.77-7.85-2.04-2.11-4.52-3.16-7.45-3.16s-5.43,1.05-7.49,3.16c-2.06,2.11-3.33,4.72-3.82,7.85h22.52Z"/>
        <path class="cls-2" d="M509.93,64.8c0,2.87-.57,5.63-1.7,8.28-1.14,2.65-2.81,4.99-5.02,7.04-2.21,2.04-4.89,3.67-8.03,4.89-3.14,1.21-6.74,1.81-10.81,1.81-2.68,0-5.11-.3-7.26-.9-2.15-.61-3.97-1.26-5.47-1.96-1.79-.83-3.38-1.79-4.76-2.87l4.29-8.24c.1-.21,.35-.28,.54-.15,.99,.61,2.1,1.17,3.34,1.69,1.2,.51,2.57,.96,4.12,1.34,1.56,.38,3.29,.57,5.2,.57,3.05,0,5.49-.54,7.31-1.62,1.83-1.09,3.21-2.3,4.17-3.64,1.13-1.53,1.94-3.28,2.42-5.26v-.95c-1.07,.19-2.15,.35-3.23,.48-1.01,.12-2.09,.24-3.23,.33-1.14,.1-2.28,.14-3.41,.14-3.83,0-7.21-.54-10.14-1.63-2.93-1.09-5.41-2.59-7.45-4.5-2.03-1.91-3.58-4.18-4.62-6.8-1.04-2.62-1.57-5.49-1.57-8.61V19.27c0-.24,.18-.43,.4-.43h10.87c.22,0,.4,.19,.4,.43v24.94c0,3.12,1.06,5.75,3.18,7.85,2.12,2.1,5.1,3.16,8.92,3.16,1.26,0,2.46-.08,3.63-.24,1.16-.16,2.23-.33,3.19-.53,1.07-.19,2.1-.42,3.04-.67V19.27c0-.24,.18-.43,.4-.43h10.87c.22,0,.39,.19,.39,.43v45.52Z"/>
        <path class="cls-2" d="M101.84,68.05V24.08c0-.37,.22-.7,.55-.82,2.04-.74,4.16-1.42,6.36-2,2.21-.57,4.55-1.06,7.04-1.48,2.48-.41,5.01-.62,7.58-.62,3.82,0,7.22,.54,10.17,1.63,2.97,1.09,5.44,2.59,7.45,4.5,2,1.91,3.52,4.18,4.57,6.79,1.04,2.62,1.56,5.49,1.56,8.61v27.37c0,.48-.36,.86-.8,.86h-10.05c-.44,0-.81-.38-.81-.86v-27.37c0-3.12-1.06-5.74-3.18-7.84-2.12-2.11-5.1-3.16-8.92-3.16-1.25,0-2.46,.12-3.64,.34-1.14,.22-2.19,.42-3.13,.59-.04,0-.07,.01-.11,.03-.86,.28-1.67,.57-2.46,.86-.32,.12-.53,.44-.53,.81v35.73c0,.48-.37,.86-.81,.86h-10.05c-.44,0-.8-.38-.8-.86"/>
        <path class="cls-2" d="M94.34,39.88c0-6.51-1.85-11.64-5.57-15.41-3.71-3.76-9.18-5.65-16.42-5.65-2.69,0-5.07,.25-7.13,.76-2.06,.51-3.87,1.12-5.43,1.82-1.6,.77-3,1.59-4.19,2.47-.17,.12-.21,.36-.12,.55l4.12,7.91c.11,.2,.34,.27,.53,.17,.99-.56,2.07-1.07,3.25-1.53,1.14-.38,2.47-.75,4-1.1,1.53-.35,3.19-.53,4.98-.53,3.59,0,6.2,.77,7.85,2.3,1.64,1.53,2.47,3.64,2.47,6.32-.9-.19-1.89-.34-2.96-.48-.96-.12-2.06-.24-3.32-.34-1.26-.09-2.6-.13-4.04-.13-3.95,0-7.33,.42-10.13,1.29-2.81,.86-5.13,2.03-6.96,3.5-1.83,1.47-3.17,3.22-4.03,5.26-.87,2.04-1.3,4.28-1.3,6.7s.43,4.58,1.3,6.65c.87,2.08,2.21,3.84,4.03,5.31,1.83,1.47,4.14,2.64,6.96,3.5,2.81,.86,6.19,1.29,10.13,1.29,2.93,0,5.68-.16,8.25-.48,2.36-.3,4.54-.65,6.54-1.04l7.19-6.8v-22.31Zm-11.66,18.67c-.96,.26-2.01,.48-3.14,.67-.96,.19-2.05,.37-3.27,.53-1.23,.16-2.53,.24-3.91,.24-3.83,0-6.5-.62-8.03-1.87-1.52-1.25-2.29-2.69-2.29-4.35s.77-3.11,2.29-4.36c1.53-1.24,4.2-1.87,8.03-1.87,1.38,0,2.66,.05,3.86,.14,1.2,.1,2.3,.21,3.32,.34,1.14,.13,2.18,.29,3.14,.48v10.05Z"/>
      </g>
      <g class="cls-3">
        <path class="cls-6" d="M390.51,164.26h-116.02c-1.27,0-2.31-1.96-2.31-4.38V93.59c0-2.42,1.03-4.38,2.31-4.38h116.02c1.27,0,2.31,1.96,2.31,4.38v66.29c0,2.42-1.03,4.38-2.31,4.38"/>
        <path class="cls-5" d="M427.28,164.26h-35.22c-.55,0-1-3.4-1-7.6v-59.86c0-4.2,.45-7.6,1-7.6h35.22"/>
        <path class="cls-1" d="M506.27,164.26h-75.1c-2.42,0-4.38-1.96-4.38-4.38V93.59c0-2.42,1.96-4.38,4.38-4.38h75.1c2.42,0,4.38,1.96,4.38,4.38v66.29c0,2.42-1.96,4.38-4.38,4.38"/>
      </g>
    </g>
  </g>
</svg>