<?xml version="1.0" encoding="UTF-8" standalone="no"?>
<svg
   xmlns:dc="http://purl.org/dc/elements/1.1/"
   xmlns:cc="http://creativecommons.org/ns#"
   xmlns:rdf="http://www.w3.org/1999/02/22-rdf-syntax-ns#"
   xmlns:svg="http://www.w3.org/2000/svg"
   xmlns="http://www.w3.org/2000/svg"
   viewBox="0 0 566.92932 566.92932"
   height="566.92932"
   width="566.92932"
   xml:space="preserve"
   id="svg2"
   version="1.1"><metadata
     id="metadata8"><rdf:RDF><cc:Work
         rdf:about=""><dc:format>image/svg+xml</dc:format><dc:type
           rdf:resource="http://purl.org/dc/dcmitype/StillImage" /></cc:Work></rdf:RDF></metadata><defs
     id="defs6"><clipPath
       id="clipPath20"
       clipPathUnits="userSpaceOnUse"><path
         id="path18"
         d="M 0,0 H 425.197 V 425.197 H 0 Z" /></clipPath></defs><g
     transform="matrix(1.3333333,0,0,-1.3333333,0,566.92933)"
     id="g10"><path
       id="path12"
       style="fill:#231f20;fill-opacity:1;fill-rule:nonzero;stroke:none"
       d="M 357.582,255.558 H 36.641 V 148.99 h 320.941 z" /><g
       id="g14"><g
         clip-path="url(#clipPath20)"
         id="g16"><g
           transform="translate(122.2729,221.871)"
           id="g22"><path
             id="path24"
             style="fill:#ffffff;fill-opacity:1;fill-rule:nonzero;stroke:none"
             d="m 0,0 c -0.051,3.021 -3.353,2.194 -3.353,3.097 0,0.378 0.076,0.463 0.415,0.463 1.529,0 3.014,-0.17 4.538,-0.17 1.288,0 2.57,0.17 3.849,0.17 0.663,0 0.787,-0.085 0.787,-0.417 C 6.236,2.148 3.258,3.097 3.258,0 v -22.19 c 0,-2.805 3.676,-1.858 3.676,-3.093 0,-0.297 -0.125,-0.416 -0.822,-0.416 -0.954,0 -2.727,0.163 -4.512,0.163 -2.51,0 -3.382,-0.163 -3.974,-0.163 -0.742,0 -0.857,0.195 -0.857,0.628 0,1.191 3.231,-0.168 3.231,3.92 z" /></g><g
           transform="translate(164.7872,201.8665)"
           id="g26"><path
             id="path28"
             style="fill:#ffffff;fill-opacity:1;fill-rule:nonzero;stroke:none"
             d="m 0,0 c 0,-5.943 4.339,-3.795 4.339,-5.191 0,-0.308 -0.171,-0.504 -1.203,-0.504 -1.411,0 -2.028,0.164 -4.453,0.164 -1.953,0 -3.318,-0.164 -4.516,-0.164 -0.253,0 -0.665,0.12 -0.665,0.504 0,1.104 3.228,-0.165 3.228,4.406 v 19.79 c 0,4.962 -3.39,2.45 -3.39,3.933 0,0.332 0.208,0.626 0.542,0.626 0.366,0 1.821,-0.17 4.211,-0.17 2.059,0 2.729,0.17 4.716,0.17 5.244,0 11.077,-1.823 11.077,-7.974 0,-1.658 -1.246,-7.94 -10.04,-7.94 -0.431,0 -2.819,0.205 -2.819,0.942 0,0.313 0.205,0.389 0.412,0.389 0.334,0 1.202,-0.26 2.692,-0.26 4.214,0 6.692,2.026 6.692,5.75 0,4.994 -3.85,7.636 -8.589,7.636 -1.336,0 -2.234,0 -2.234,-1.237 z" /></g><g
           transform="translate(210.3249,201.2563)"
           id="g30"><path
             id="path32"
             style="fill:#ffffff;fill-opacity:1;fill-rule:nonzero;stroke:none"
             d="m 0,0 c 0,-2.443 -0.336,-3.434 3.132,-3.434 9.552,0 10.957,4.265 11.498,4.265 0.29,0 0.327,-0.421 0.327,-0.495 0,-1.492 -1.073,-2.943 -2.059,-4.018 -1.333,-1.479 -2.236,-1.403 -4.06,-1.403 -3.145,0 -6.282,0.254 -9.416,0.164 -1.649,-0.044 -3.399,-0.164 -5.052,-0.164 -0.359,0 -0.606,0.076 -0.606,0.417 0.069,0.493 0.491,0.408 1.815,1.066 1.073,0.502 1.16,1.656 1.16,3.602 v 20.946 c 0,2.146 -3.465,1.863 -3.465,2.69 0,0.453 0.281,0.539 0.808,0.539 0.875,0 2.155,-0.171 4.177,-0.171 2.363,0 3.351,0.171 3.975,0.171 0.536,0 0.781,-0.086 0.781,-0.581 C 3.015,22.648 0,23.677 0,20.076 Z" /></g><g
           transform="translate(259.0015,213.4013)"
           id="g34"><path
             id="path36"
             style="fill:#ffffff;fill-opacity:1;fill-rule:nonzero;stroke:none"
             d="m 0,0 c 0,-1.403 -0.092,-1.403 1.568,-1.403 h 4.456 c 4.29,0 3.187,3.305 4.173,3.305 0.338,0 0.456,-0.454 0.456,-0.78 0,-1.454 -0.081,-2.858 -0.081,-4.185 0,-1.071 0.081,-2.146 0.081,-3.251 0,-0.378 -0.159,-0.548 -0.456,-0.548 -1.28,0 0.117,3.638 -3.346,3.638 H 0.737 C -0.127,-3.224 0,-3.922 0,-4.555 v -7.59 c 0,-2.443 -0.338,-3.434 3.134,-3.434 9.545,0 10.955,4.265 11.489,4.265 0.285,0 0.32,-0.421 0.32,-0.495 0,-1.492 -1.071,-2.943 -2.064,-4.018 -1.326,-1.479 -2.226,-1.403 -4.045,-1.403 -3.132,0 -6.271,0.254 -9.424,0.164 -1.655,-0.044 -3.378,-0.164 -5.033,-0.164 -0.374,0 -0.624,0.077 -0.624,0.417 0.087,0.493 0.504,0.408 1.816,1.066 1.076,0.502 1.154,1.656 1.154,3.602 V 6.69 c 0,1.86 0,3.845 -2.227,4.177 -0.334,0.08 -1.239,0.168 -1.239,0.665 0,0.327 0.252,0.498 1.449,0.498 7.809,0 9.964,-0.171 11.694,-0.171 0.822,0 4.623,0.171 5.908,0.171 0.327,0 0.411,-0.417 0.411,-0.919 0,-4.578 -0.565,-4.912 -0.83,-4.912 -0.983,0 -0.336,1.985 -0.983,2.936 -1.068,1.4 -5.375,1.149 -7.03,1.149 C -0.092,10.284 0,10.462 0,7.694 Z" /></g><g
           transform="translate(325.6815,226.3268)"
           id="g38"><path
             id="path40"
             style="fill:#ffffff;fill-opacity:1;fill-rule:nonzero;stroke:none"
             d="m 0,0 c -1.665,0 -3.8,-0.525 -5.382,-1.916 -2.952,-2.591 -4.921,-6.899 -6.061,-9.662 -0.368,-0.947 -0.73,-1.226 -0.921,-1.226 -0.258,0 -0.509,0.244 -0.84,0.744 l -4.396,7.109 c -0.254,0.371 -0.744,1.034 -0.744,1.697 0,1.195 1.946,1.237 1.946,1.942 0,0.373 -0.505,0.416 -0.797,0.416 -0.405,0 -1.522,-0.17 -2.883,-0.17 -2.819,0 -3.602,0.17 -4.714,0.17 -0.292,0 -0.537,-0.338 -0.537,-0.626 0,-0.698 2.032,-0.203 3.093,-1.985 l 6.901,-11.033 c 0.339,-0.495 0.959,-1.329 0.959,-2.1 v -10.006 c 0,-2.936 -3.183,-1.858 -3.183,-3.005 0,-0.463 0.256,-0.504 0.612,-0.504 0.378,0 1.87,0.163 3.722,0.163 1.536,0 3.926,-0.163 4.546,-0.163 0.578,0 0.955,0.041 0.955,0.417 0,1.269 -3.389,0.117 -3.389,3.717 v 9.888 c 0.836,2.491 2.57,6.551 5.137,9.771 2.013,2.526 4.403,4.49 7.595,5.584 0.225,0.089 0.403,0.193 0.403,0.405 C 2.022,0.021 0,0 0,0" /></g><g
           transform="translate(94.2684,195.7295)"
           id="g42"><path
             id="path44"
             style="fill:#ffffff;fill-opacity:1;fill-rule:nonzero;stroke:none"
             d="m 0,0 c 0,0.21 -0.249,0.269 -0.249,0.269 -2.489,0.454 -4.817,2.195 -6.579,4.037 -2.883,3.01 -5.305,6.849 -6.242,8.638 -0.279,0.64 0.121,0.721 0.121,0.721 v 0.007 c 4.862,1.863 5.654,6.719 5.654,8.055 0,6.151 -5.824,7.974 -11.077,7.974 -1.976,0 -2.636,-0.165 -4.697,-0.165 -2.402,0 -3.844,0.165 -4.221,0.165 -0.325,0 -0.539,-0.294 -0.539,-0.626 0,-1.483 3.39,1.029 3.39,-3.933 V 5.352 c 0,-4.571 -3.227,-3.302 -3.227,-4.406 0,-0.379 0.417,-0.504 0.668,-0.504 1.2,0 2.559,0.164 4.493,0.164 2.45,0 3.065,-0.164 4.474,-0.164 1.032,0 1.195,0.196 1.195,0.504 0,1.396 -4.338,-0.752 -4.338,5.191 v 20.87 c 0,1.237 0.91,1.237 2.229,1.237 4.758,0 8.518,-2.642 8.589,-7.636 0.067,-3.395 -2.468,-6.612 -6.694,-6.612 -1.476,0 -1.156,0.092 -1.494,0.092 -0.203,0 -0.401,-0.082 -0.401,-0.366 0,-0.386 0.299,-0.585 0.661,-0.684 0.467,-0.2 1.531,-0.363 2.637,-2.079 C -12.824,6.358 -9.66,-0.567 -2.432,-0.567 0.272,-0.567 0,-0.237 0,0" /></g><g
           transform="translate(383.1118,170.2957)"
           id="g46"><path
             id="path48"
             style="fill:#231f20;fill-opacity:1;fill-rule:nonzero;stroke:none"
             d="m 0,0 c 0,0.785 0.273,1.453 0.822,2.008 0.551,0.556 1.217,0.834 2,0.834 0.785,0 1.457,-0.278 2.008,-0.834 C 5.387,1.453 5.664,0.785 5.664,0 5.664,-0.783 5.387,-1.455 4.83,-2.008 4.279,-2.565 3.607,-2.84 2.822,-2.84 c -0.783,0 -1.449,0.275 -2,0.832 C 0.273,-1.455 0,-0.783 0,0" /></g><g
           transform="translate(372.561,197.2461)"
           id="g50"><path
             id="path52"
             style="fill:#231f20;fill-opacity:1;fill-rule:nonzero;stroke:none"
             d="M 0,0 2.262,-4.116 C 1.455,-4.887 0.891,-5.652 0.58,-6.407 0.265,-7.16 0.108,-8.047 0.108,-9.06 c 0,-1.849 0.553,-3.343 1.654,-4.486 1.103,-1.141 2.515,-1.713 4.236,-1.713 1.676,0 3.042,0.551 4.105,1.65 1.056,1.099 1.588,2.543 1.588,4.331 0,2.21 -0.753,3.933 -2.261,5.162 l 2.665,3.898 c 2.747,-2.113 4.12,-5.09 4.12,-8.941 0,-3.463 -1.027,-6.173 -3.076,-8.135 -2.051,-1.959 -4.453,-2.941 -7.202,-2.941 -1.908,0 -3.664,0.478 -5.266,1.428 -1.607,0.954 -2.868,2.286 -3.782,3.992 -0.919,1.708 -1.375,3.617 -1.375,5.729 0,1.955 0.387,3.709 1.164,5.265 C -2.543,-2.264 -1.434,-0.991 0,0" /></g><g
           transform="translate(368.0751,210.9454)"
           id="g54"><path
             id="path56"
             style="fill:#231f20;fill-opacity:1;fill-rule:nonzero;stroke:none"
             d="m 0,0 c 0,1.857 0.462,3.603 1.392,5.239 0.929,1.634 2.189,2.911 3.782,3.829 1.593,0.917 3.312,1.375 5.159,1.375 1.856,0 3.593,-0.464 5.209,-1.385 1.619,-0.922 2.881,-2.183 3.794,-3.772 0.908,-1.593 1.365,-3.351 1.365,-5.266 0,-2.826 -1.003,-5.235 -3.011,-7.231 -2.01,-2.001 -4.451,-2.996 -7.322,-2.996 -3.076,0 -5.64,1.129 -7.693,3.383 C 0.889,-4.844 0,-2.572 0,0 m 4.649,0.081 c 0,-1.534 0.533,-2.812 1.601,-3.835 1.068,-1.021 2.437,-1.532 4.098,-1.532 1.715,0 3.102,0.505 4.164,1.514 1.062,1.007 1.595,2.287 1.595,3.835 0,1.546 -0.539,2.834 -1.613,3.861 C 13.42,4.952 12.038,5.465 10.348,5.465 8.659,5.465 7.286,4.958 6.232,3.951 5.176,2.942 4.649,1.652 4.649,0.081" /></g><g
           transform="translate(368.5806,225.3864)"
           id="g58"><path
             id="path60"
             style="fill:#231f20;fill-opacity:1;fill-rule:nonzero;stroke:none"
             d="M 0,0 V 4.942 H 2.26 C 1.331,5.786 0.637,6.728 0.179,7.758 c -0.458,1.031 -0.684,2.16 -0.684,3.379 0,1.229 0.298,2.34 0.9,3.329 0.606,0.992 1.487,1.79 2.645,2.392 -1.158,0.785 -2.039,1.748 -2.645,2.889 -0.602,1.14 -0.9,2.387 -0.9,3.74 0,1.4 0.322,2.63 0.975,3.694 0.651,1.062 1.5,1.825 2.553,2.291 1.046,0.464 2.755,0.7 5.121,0.7 H 19.69 v -4.98 H 9.699 C 7.467,25.192 5.957,24.915 5.164,24.36 4.374,23.804 3.98,22.974 3.98,21.863 c 0,-0.846 0.242,-1.601 0.722,-2.272 0.486,-0.67 1.149,-1.168 2.002,-1.492 0.85,-0.327 2.219,-0.488 4.099,-0.488 h 8.887 v -4.979 h -9.538 c -1.76,0 -3.039,-0.128 -3.828,-0.39 C 5.534,11.983 4.946,11.593 4.56,11.072 4.171,10.553 3.98,9.922 3.98,9.186 3.98,8.364 4.224,7.617 4.71,6.946 5.202,6.275 5.886,5.774 6.767,5.442 c 0.881,-0.335 2.27,-0.5 4.163,-0.5 h 8.76 L 19.69,0 Z" /></g></g></g><path
       id="path62"
       style="fill:#c4c5c7;fill-opacity:1;fill-rule:nonzero;stroke:none"
       d="m 302.467,144.722 h -10.026 v 20.649 h 10.026 z" /><path
       id="path64"
       style="fill:#6e126b;fill-opacity:1;fill-rule:nonzero;stroke:none"
       d="m 137.118,144.722 h -25.077 v 20.649 h 25.077 z" /><path
       id="path66"
       style="fill:#6e126b;fill-opacity:1;fill-rule:nonzero;stroke:none"
       d="M 51.655,165.372 H 56.68 V 144.723 H 51.655 Z" /><path
       id="path68"
       style="fill:#fad106;fill-opacity:1;fill-rule:nonzero;stroke:none"
       d="M 56.685,165.372 H 71.738 V 144.723 H 56.685 Z" /><path
       id="path70"
       style="fill:#f03f52;fill-opacity:1;fill-rule:nonzero;stroke:none"
       d="m 87.035,165.372 h 15.051 V 144.723 H 87.035 Z" /><path
       id="path72"
       style="fill:#c4c5c7;fill-opacity:1;fill-rule:nonzero;stroke:none"
       d="M 76.74,165.372 H 87.061 V 144.723 H 76.74 Z" /><path
       id="path74"
       style="fill:#ce1330;fill-opacity:1;fill-rule:nonzero;stroke:none"
       d="m 147.053,144.722 h -10.029 v 20.649 h 10.029 z" /><path
       id="path76"
       style="fill:#ce1330;fill-opacity:1;fill-rule:nonzero;stroke:none"
       d="M 51.635,144.722 H 36.628 v 20.649 h 15.007 z" /><path
       id="path78"
       style="fill:#6e126b;fill-opacity:1;fill-rule:nonzero;stroke:none"
       d="m 347.645,144.722 h -15.051 v 20.649 h 15.051 z" /><path
       id="path80"
       style="fill:#c4c5c7;fill-opacity:1;fill-rule:nonzero;stroke:none"
       d="m 162.071,144.722 h -15.044 v 20.649 h 15.044 z" /><path
       id="path82"
       style="fill:#ce1330;fill-opacity:1;fill-rule:nonzero;stroke:none"
       d="m 162.032,165.372 h 15.06 v -20.649 h -15.06 z" /><path
       id="path84"
       style="fill:#fad106;fill-opacity:1;fill-rule:nonzero;stroke:none"
       d="M 102.045,165.372 H 112.08 V 144.723 H 102.045 Z" /><path
       id="path86"
       style="fill:#ffffff;fill-opacity:1;fill-rule:nonzero;stroke:none"
       d="m 302.467,165.372 h 5.011 v -20.649 h -5.011 z" /><path
       id="path88"
       style="fill:#fad106;fill-opacity:1;fill-rule:nonzero;stroke:none"
       d="m 202.204,144.722 h -15.051 v 20.649 h 15.051 z" /><path
       id="path90"
       style="fill:#c4c5c7;fill-opacity:1;fill-rule:nonzero;stroke:none"
       d="m 252.324,144.722 h -5.018 v 20.649 h 5.018 z" /><path
       id="path92"
       style="fill:#6e126b;fill-opacity:1;fill-rule:nonzero;stroke:none"
       d="m 202.163,165.372 h 15.056 v -20.649 h -15.056 z" /><path
       id="path94"
       style="fill:#f03f52;fill-opacity:1;fill-rule:nonzero;stroke:none"
       d="m 217.218,165.372 h 10.033 v -20.649 h -10.033 z" /><path
       id="path96"
       style="fill:#ce1330;fill-opacity:1;fill-rule:nonzero;stroke:none"
       d="m 227.235,165.372 h 5.022 v -20.649 h -5.022 z" /><path
       id="path98"
       style="fill:#fad106;fill-opacity:1;fill-rule:nonzero;stroke:none"
       d="m 232.281,165.372 h 15.046 v -20.649 h -15.046 z" /><path
       id="path100"
       style="fill:#ffffff;fill-opacity:1;fill-rule:nonzero;stroke:none"
       d="m 252.283,165.372 h 5.015 v -20.649 h -5.015 z" /><path
       id="path102"
       style="fill:#ffffff;fill-opacity:1;fill-rule:nonzero;stroke:none"
       d="m 182.126,165.372 h 5.022 v -20.649 h -5.022 z" /><path
       id="path104"
       style="fill:#ffffff;fill-opacity:1;fill-rule:nonzero;stroke:none"
       d="m 71.708,165.372 h 5.018 v -20.649 h -5.018 z" /><path
       id="path106"
       style="fill:#ce1330;fill-opacity:1;fill-rule:nonzero;stroke:none"
       d="m 267.327,165.372 h 25.089 v -20.649 h -25.089 z" /><path
       id="path108"
       style="fill:#6e126b;fill-opacity:1;fill-rule:nonzero;stroke:none"
       d="m 257.298,165.372 h 10.033 v -20.649 h -10.033 z" /><path
       id="path110"
       style="fill:#f03f52;fill-opacity:1;fill-rule:nonzero;stroke:none"
       d="m 322.522,144.722 h -15.056 v 20.649 h 15.056 z" /><path
       id="path112"
       style="fill:#fad106;fill-opacity:1;fill-rule:nonzero;stroke:none"
       d="m 322.54,165.372 h 10.033 V 144.723 H 322.54 Z" /><path
       id="path114"
       style="fill:#ce1330;fill-opacity:1;fill-rule:nonzero;stroke:none"
       d="m 347.62,165.372 h 9.971 v -20.649 h -9.971 z" /><path
       id="path116"
       style="fill:#6e126b;fill-opacity:1;fill-rule:nonzero;stroke:none"
       d="m 177.095,165.372 h 5.022 v -20.649 h -5.022 z" /></g></svg>