<?xml version="1.0" encoding="UTF-8"?><svg id="Capa_2" xmlns="http://www.w3.org/2000/svg" viewBox="0 0 1800.74 1062.83"><defs><style>.cls-1{stroke-width:5px;}.cls-1,.cls-2,.cls-3{fill:#00a79d;}.cls-1,.cls-3{stroke:#00a79d;stroke-miterlimit:10;}.cls-4{fill:#828487;}</style></defs><g id="Layer_1"><g><path class="cls-2" d="m1770.23,30.49c-2.3,1.94-4.5,3.98-6.46,6.21-153.25,174.39-346.04,299.45-538.6,422.9-149.13,95.61-248.99,227.03-321.5,383.89-2.81,6.08-5.54,12.21-8.2,18.37-2.59-6.19-5.25-12.35-7.99-18.46-70.71-157.69-169.05-290.25-317.07-387.57C379.28,330.17,187.95,202.9,36.71,26.76c-1.94-2.26-4.11-4.32-6.39-6.29C-25.79-33.65,13.17,36.66,13.17,36.66h0c57.85,123.44,169.28,202.03,262.55,290.99-55.34-38.07-43.18,11.08-43.18,11.08,10.36,19.96,11.28,28.41,24.86,39.77,69.03,57.74,141.64,111.11,213.93,164.72,71.03,52.67,147.08,99.1,214.67,155.74,74.64,62.55,124.17,144.88,162.54,233.79.42.98.84,1.96,1.26,2.94l29.55,72.09,8.78,27.18.11.33,8.89,27.52,9.2-27.42.42-1.26,8.78-26.15,24.73-71.78c39.57-89.59,90.33-172.46,166.52-234.83,68.23-55.86,144.82-101.41,216.45-153.26,72.9-52.77,146.12-105.3,215.81-162.25,13.71-11.2,14.73-19.64,25.32-39.48,0,0,12.72-49.02-43.05-11.58,94.29-87.88,206.61-165.18,265.88-287.95h0s39.76-69.86-16.97-16.39Z"/><g><g><path class="cls-3" d="m873.23,298.8h-22.8v21.15h25.41v6.35h-32.98v-58.65h31.68v6.35h-24.1v18.54h22.8v6.27Z"/><path class="cls-3" d="m904.12,326.3v-58.65h8.27l18.8,29.67c4.35,6.87,7.75,13.05,10.53,19.06l.17-.09c-.7-7.83-.87-14.97-.87-24.1v-24.54h7.14v58.65h-7.66l-18.62-29.76c-4.09-6.53-8.01-13.23-10.96-19.58l-.26.09c.43,7.4.61,14.45.61,24.19v25.06h-7.14Z"/></g><line class="cls-1" x1="992.75" y1="296.95" x2="1168.82" y2="296.95"/><line class="cls-1" x1="621.05" y1="296.95" x2="797.12" y2="296.95"/></g><g><path class="cls-4" d="m443.92,151.12l26.71-59.4h14.62l-41.33,93.28-39.86-93.28h14.62l25.25,59.4Z"/><path class="cls-4" d="m606.83,91.86c6.47,0,12.45,1.22,17.94,3.65,5.49,2.44,10.27,5.76,14.35,9.97,4.07,4.21,7.26,9.12,9.57,14.75,2.3,5.63,3.45,11.63,3.45,18s-1.15,12.4-3.45,18.07c-2.3,5.67-5.49,10.63-9.57,14.88-4.08,4.25-8.86,7.6-14.35,10.03-5.49,2.44-11.47,3.65-17.94,3.65-6.11,0-11.85-1.22-17.21-3.65-5.36-2.43-10.03-5.78-14.02-10.03-3.99-4.25-7.13-9.21-9.43-14.88-2.3-5.67-3.46-11.69-3.46-18.07s1.15-12.38,3.46-18c2.3-5.62,5.45-10.54,9.43-14.75,3.99-4.21,8.66-7.53,14.02-9.97,5.36-2.44,11.1-3.65,17.21-3.65Zm0,80.26c4.61,0,8.9-.88,12.89-2.66,3.99-1.77,7.44-4.19,10.37-7.24,2.92-3.06,5.2-6.64,6.84-10.76,1.64-4.12,2.46-8.52,2.46-13.22s-.82-8.95-2.46-13.02c-1.64-4.07-3.92-7.62-6.84-10.63-2.92-3.01-6.38-5.4-10.37-7.18-3.99-1.77-8.28-2.66-12.89-2.66-4.34,0-8.42.89-12.23,2.66-3.81,1.77-7.13,4.17-9.97,7.18-2.84,3.01-5.07,6.56-6.71,10.63-1.64,4.08-2.46,8.42-2.46,13.02s.82,9.1,2.46,13.22c1.64,4.12,3.87,7.71,6.71,10.76,2.83,3.06,6.16,5.47,9.97,7.24,3.81,1.77,7.88,2.66,12.23,2.66Z"/><path class="cls-4" d="m743.3,172.38h39.07v12.62h-51.69v-93.02h12.62v80.39Z"/><path class="cls-4" d="m920.56,170.52h-39.2l-6.51,14.48h-14.08l40.13-93.02,40.26,93.02h-14.48l-6.11-14.48Zm-5.58-12.09l-14.08-32.29-13.95,32.29h28.04Z"/><path class="cls-4" d="m1087.99,91.99v93.02h-14.88l-40.79-70.29v70.29h-12.49v-93.02h14.75l40.93,72.02v-72.02h12.49Z"/><path class="cls-4" d="m1238.14,138.5c0,6.38-1.2,12.38-3.59,18.01-2.39,5.63-5.67,10.54-9.83,14.75-4.17,4.21-9.02,7.55-14.55,10.03-5.54,2.48-11.49,3.72-17.87,3.72h-24.85v-92.88l24.85.13c6.38.09,12.34,1.37,17.87,3.85,5.54,2.48,10.38,5.83,14.55,10.03,4.16,4.21,7.44,9.1,9.83,14.68,2.39,5.58,3.59,11.47,3.59,17.67Zm-46.51,33.22c4.61,0,8.92-.86,12.96-2.59,4.03-1.73,7.55-4.1,10.56-7.11,3.01-3.01,5.38-6.53,7.11-10.56,1.73-4.03,2.59-8.35,2.59-12.96s-.87-8.79-2.59-12.82c-1.73-4.03-4.1-7.55-7.11-10.56-3.01-3.01-6.53-5.4-10.56-7.18-4.03-1.77-8.35-2.66-12.96-2.66h-11.16v66.44h11.16Z"/><path class="cls-4" d="m1361.85,91.86c6.46,0,12.45,1.22,17.94,3.65,5.49,2.44,10.28,5.76,14.35,9.97,4.07,4.21,7.26,9.12,9.57,14.75,2.3,5.63,3.45,11.63,3.45,18s-1.15,12.4-3.45,18.07c-2.3,5.67-5.49,10.63-9.57,14.88-4.08,4.25-8.86,7.6-14.35,10.03-5.49,2.44-11.47,3.65-17.94,3.65-6.11,0-11.85-1.22-17.21-3.65-5.36-2.43-10.03-5.78-14.02-10.03-3.99-4.25-7.13-9.21-9.43-14.88-2.3-5.67-3.46-11.69-3.46-18.07s1.15-12.38,3.46-18c2.3-5.62,5.45-10.54,9.43-14.75,3.99-4.21,8.66-7.53,14.02-9.97,5.36-2.44,11.09-3.65,17.21-3.65Zm0,80.26c4.6,0,8.9-.88,12.89-2.66,3.99-1.77,7.44-4.19,10.37-7.24,2.92-3.06,5.2-6.64,6.84-10.76,1.64-4.12,2.46-8.52,2.46-13.22s-.82-8.95-2.46-13.02c-1.64-4.07-3.92-7.62-6.84-10.63-2.92-3.01-6.38-5.4-10.37-7.18-3.99-1.77-8.29-2.66-12.89-2.66-4.34,0-8.42.89-12.23,2.66-3.81,1.77-7.13,4.17-9.96,7.18-2.84,3.01-5.07,6.56-6.71,10.63-1.64,4.08-2.46,8.42-2.46,13.02s.82,9.1,2.46,13.22c1.64,4.12,3.88,7.71,6.71,10.76,2.83,3.06,6.16,5.47,9.96,7.24,3.81,1.77,7.88,2.66,12.23,2.66Z"/></g><path class="cls-4" d="m990.7,385.26l-89.12,206.94-3.91,10.87v-.43l-.43.43-7.39-17.39-86.08-200.42h41.73l52.17,118.68,52.17-118.68h40.87Z"/></g></g></svg>